<mxfile host="app.diagrams.net" modified="2020-09-24T14:44:32.293Z" agent="5.0 (Windows NT 10.0; Win64; x64) AppleWebKit/537.36 (KHTML, like Gecko) Chrome/85.0.4183.121 Safari/537.36" etag="RhbsDZoX7C5KobmJOhVh" version="13.7.5" type="github">
  <diagram id="C5RBs43oDa-KdzZeNtuy" name="Page-1">
    <mxGraphModel dx="1937" dy="1064" grid="1" gridSize="10" guides="1" tooltips="1" connect="1" arrows="1" fold="1" page="1" pageScale="5" pageWidth="827" pageHeight="1169" math="0" shadow="0">
      <root>
        <mxCell id="WIyWlLk6GJQsqaUBKTNV-0" />
        <mxCell id="WIyWlLk6GJQsqaUBKTNV-1" parent="WIyWlLk6GJQsqaUBKTNV-0" />
        <mxCell id="NXojXSi49g-Y3K-OqPZ--0" value="&lt;span style=&quot;font-size: 18px&quot;&gt;등록업무&lt;/span&gt;" style="rounded=1;whiteSpace=wrap;html=1;" vertex="1" parent="WIyWlLk6GJQsqaUBKTNV-1">
          <mxGeometry x="2250" y="10" width="100" height="40" as="geometry" />
        </mxCell>
        <mxCell id="NXojXSi49g-Y3K-OqPZ--2" value="" style="endArrow=classic;html=1;" edge="1" parent="WIyWlLk6GJQsqaUBKTNV-1">
          <mxGeometry width="50" height="50" relative="1" as="geometry">
            <mxPoint x="2299.5" y="50" as="sourcePoint" />
            <mxPoint x="2300" y="140" as="targetPoint" />
          </mxGeometry>
        </mxCell>
        <mxCell id="NXojXSi49g-Y3K-OqPZ--3" value="&lt;font style=&quot;font-size: 18px&quot;&gt;Daily인가?&lt;/font&gt;" style="rhombus;whiteSpace=wrap;html=1;" vertex="1" parent="WIyWlLk6GJQsqaUBKTNV-1">
          <mxGeometry x="2235" y="140" width="130" height="80" as="geometry" />
        </mxCell>
        <mxCell id="NXojXSi49g-Y3K-OqPZ--4" value="" style="edgeStyle=segmentEdgeStyle;endArrow=classic;html=1;" edge="1" parent="WIyWlLk6GJQsqaUBKTNV-1">
          <mxGeometry width="50" height="50" relative="1" as="geometry">
            <mxPoint x="2365" y="180" as="sourcePoint" />
            <mxPoint x="2600" y="280" as="targetPoint" />
          </mxGeometry>
        </mxCell>
        <mxCell id="NXojXSi49g-Y3K-OqPZ--5" value="&lt;span style=&quot;font-size: 18px&quot;&gt;No(대량)&lt;/span&gt;" style="text;html=1;strokeColor=none;fillColor=none;align=center;verticalAlign=middle;whiteSpace=wrap;rounded=0;" vertex="1" parent="WIyWlLk6GJQsqaUBKTNV-1">
          <mxGeometry x="2440" y="150" width="110" height="20" as="geometry" />
        </mxCell>
        <mxCell id="NXojXSi49g-Y3K-OqPZ--6" value="" style="edgeStyle=segmentEdgeStyle;endArrow=classic;html=1;" edge="1" parent="WIyWlLk6GJQsqaUBKTNV-1">
          <mxGeometry width="50" height="50" relative="1" as="geometry">
            <mxPoint x="2235" y="180" as="sourcePoint" />
            <mxPoint x="2000" y="280" as="targetPoint" />
            <Array as="points">
              <mxPoint x="2000" y="180" />
              <mxPoint x="2000" y="280" />
            </Array>
          </mxGeometry>
        </mxCell>
        <mxCell id="NXojXSi49g-Y3K-OqPZ--7" value="&lt;span style=&quot;font-size: 18px&quot;&gt;No&lt;/span&gt;" style="text;html=1;strokeColor=none;fillColor=none;align=center;verticalAlign=middle;whiteSpace=wrap;rounded=0;" vertex="1" parent="WIyWlLk6GJQsqaUBKTNV-1">
          <mxGeometry x="1970" y="430" width="120" height="20" as="geometry" />
        </mxCell>
        <mxCell id="NXojXSi49g-Y3K-OqPZ--8" value="&lt;font style=&quot;font-size: 18px&quot;&gt;유통사&lt;br&gt;신규 CMS 오픈&amp;nbsp;&lt;br&gt;여부 확인&lt;/font&gt;" style="rhombus;whiteSpace=wrap;html=1;" vertex="1" parent="WIyWlLk6GJQsqaUBKTNV-1">
          <mxGeometry x="1890" y="280" width="220" height="120" as="geometry" />
        </mxCell>
        <mxCell id="NXojXSi49g-Y3K-OqPZ--9" value="" style="edgeStyle=segmentEdgeStyle;endArrow=classic;html=1;" edge="1" parent="WIyWlLk6GJQsqaUBKTNV-1">
          <mxGeometry width="50" height="50" relative="1" as="geometry">
            <mxPoint x="1890" y="340" as="sourcePoint" />
            <mxPoint x="1470" y="480" as="targetPoint" />
            <Array as="points">
              <mxPoint x="1470" y="340" />
              <mxPoint x="1470" y="480" />
            </Array>
          </mxGeometry>
        </mxCell>
        <mxCell id="NXojXSi49g-Y3K-OqPZ--10" value="&lt;span style=&quot;font-size: 18px&quot;&gt;신규 오픈 유통사&lt;/span&gt;" style="text;html=1;strokeColor=none;fillColor=none;align=center;verticalAlign=middle;whiteSpace=wrap;rounded=0;" vertex="1" parent="WIyWlLk6GJQsqaUBKTNV-1">
          <mxGeometry x="1620" y="300" width="180" height="20" as="geometry" />
        </mxCell>
        <mxCell id="NXojXSi49g-Y3K-OqPZ--12" value="&lt;span style=&quot;font-size: 18px&quot;&gt;Yes&lt;/span&gt;" style="text;html=1;strokeColor=none;fillColor=none;align=center;verticalAlign=middle;whiteSpace=wrap;rounded=0;" vertex="1" parent="WIyWlLk6GJQsqaUBKTNV-1">
          <mxGeometry x="2070" y="160" width="120" height="20" as="geometry" />
        </mxCell>
        <mxCell id="NXojXSi49g-Y3K-OqPZ--13" value="" style="endArrow=classic;html=1;" edge="1" parent="WIyWlLk6GJQsqaUBKTNV-1">
          <mxGeometry width="50" height="50" relative="1" as="geometry">
            <mxPoint x="2000" y="400" as="sourcePoint" />
            <mxPoint x="2000" y="480" as="targetPoint" />
          </mxGeometry>
        </mxCell>
        <mxCell id="NXojXSi49g-Y3K-OqPZ--14" value="&lt;span style=&quot;font-size: 18px&quot;&gt;구글 메일 확인&lt;/span&gt;" style="rounded=0;whiteSpace=wrap;html=1;" vertex="1" parent="WIyWlLk6GJQsqaUBKTNV-1">
          <mxGeometry x="1920" y="480" width="160" height="60" as="geometry" />
        </mxCell>
        <mxCell id="NXojXSi49g-Y3K-OqPZ--17" value="&lt;font style=&quot;font-size: 18px&quot;&gt;검수 대기 상태&lt;/font&gt;" style="rounded=0;whiteSpace=wrap;html=1;" vertex="1" parent="WIyWlLk6GJQsqaUBKTNV-1">
          <mxGeometry x="1390" y="480" width="160" height="60" as="geometry" />
        </mxCell>
        <mxCell id="NXojXSi49g-Y3K-OqPZ--18" value="" style="endArrow=classic;html=1;" edge="1" parent="WIyWlLk6GJQsqaUBKTNV-1">
          <mxGeometry width="50" height="50" relative="1" as="geometry">
            <mxPoint x="2000" y="540" as="sourcePoint" />
            <mxPoint x="2000" y="620" as="targetPoint" />
          </mxGeometry>
        </mxCell>
        <mxCell id="NXojXSi49g-Y3K-OqPZ--19" value="&lt;span style=&quot;font-size: 18px&quot;&gt;중요도가 높은&amp;nbsp;&lt;br&gt;앨범인가?&lt;br&gt;&lt;/span&gt;" style="rhombus;whiteSpace=wrap;html=1;" vertex="1" parent="WIyWlLk6GJQsqaUBKTNV-1">
          <mxGeometry x="1890" y="620" width="220" height="120" as="geometry" />
        </mxCell>
        <mxCell id="NXojXSi49g-Y3K-OqPZ--21" value="" style="endArrow=classic;html=1;" edge="1" parent="WIyWlLk6GJQsqaUBKTNV-1">
          <mxGeometry width="50" height="50" relative="1" as="geometry">
            <mxPoint x="1469.4099999999999" y="540" as="sourcePoint" />
            <mxPoint x="1469.4099999999999" y="620" as="targetPoint" />
          </mxGeometry>
        </mxCell>
        <mxCell id="NXojXSi49g-Y3K-OqPZ--22" value="&lt;span style=&quot;font-size: 18px&quot;&gt;중요도가 높은&amp;nbsp;&lt;br&gt;앨범인가?&lt;br&gt;&lt;/span&gt;" style="rhombus;whiteSpace=wrap;html=1;" vertex="1" parent="WIyWlLk6GJQsqaUBKTNV-1">
          <mxGeometry x="1360" y="620" width="220" height="120" as="geometry" />
        </mxCell>
        <mxCell id="NXojXSi49g-Y3K-OqPZ--23" value="&lt;font style=&quot;font-size: 18px&quot;&gt;Trello 기록&lt;/font&gt;" style="rounded=0;whiteSpace=wrap;html=1;" vertex="1" parent="WIyWlLk6GJQsqaUBKTNV-1">
          <mxGeometry x="1940" y="820" width="120" height="60" as="geometry" />
        </mxCell>
        <mxCell id="NXojXSi49g-Y3K-OqPZ--24" value="&lt;span style=&quot;font-size: 18px&quot;&gt;Yes&lt;/span&gt;" style="text;html=1;strokeColor=none;fillColor=none;align=center;verticalAlign=middle;whiteSpace=wrap;rounded=0;" vertex="1" parent="WIyWlLk6GJQsqaUBKTNV-1">
          <mxGeometry x="1380" y="770" width="120" height="20" as="geometry" />
        </mxCell>
        <mxCell id="NXojXSi49g-Y3K-OqPZ--28" value="" style="endArrow=classic;html=1;" edge="1" parent="WIyWlLk6GJQsqaUBKTNV-1">
          <mxGeometry width="50" height="50" relative="1" as="geometry">
            <mxPoint x="1999.41" y="740" as="sourcePoint" />
            <mxPoint x="1999.41" y="820" as="targetPoint" />
          </mxGeometry>
        </mxCell>
        <mxCell id="NXojXSi49g-Y3K-OqPZ--29" value="" style="endArrow=classic;html=1;entryX=0.5;entryY=0;entryDx=0;entryDy=0;" edge="1" parent="WIyWlLk6GJQsqaUBKTNV-1" target="NXojXSi49g-Y3K-OqPZ--44">
          <mxGeometry width="50" height="50" relative="1" as="geometry">
            <mxPoint x="1469.4099999999999" y="740" as="sourcePoint" />
            <mxPoint x="1469.4099999999999" y="820" as="targetPoint" />
          </mxGeometry>
        </mxCell>
        <mxCell id="NXojXSi49g-Y3K-OqPZ--30" value="&lt;span style=&quot;font-size: 18px&quot;&gt;Yes&lt;/span&gt;" style="text;html=1;strokeColor=none;fillColor=none;align=center;verticalAlign=middle;whiteSpace=wrap;rounded=0;" vertex="1" parent="WIyWlLk6GJQsqaUBKTNV-1">
          <mxGeometry x="1910" y="770" width="120" height="20" as="geometry" />
        </mxCell>
        <mxCell id="NXojXSi49g-Y3K-OqPZ--31" value="&lt;span style=&quot;font-size: 18px&quot;&gt;검수진행&lt;/span&gt;" style="rounded=0;whiteSpace=wrap;html=1;" vertex="1" parent="WIyWlLk6GJQsqaUBKTNV-1">
          <mxGeometry x="1400" y="970" width="130" height="60" as="geometry" />
        </mxCell>
        <mxCell id="NXojXSi49g-Y3K-OqPZ--32" value="&lt;span style=&quot;font-size: 18px&quot;&gt;▶중요 앨범 기준◀&amp;nbsp;&lt;br&gt;1.사전 공지받은 중요 앨범&lt;br&gt;2. 누구나 알만한 아티스트&lt;br&gt;3. 주요 유통사 6시&lt;br&gt;&lt;/span&gt;" style="text;html=1;strokeColor=none;fillColor=none;align=center;verticalAlign=middle;whiteSpace=wrap;rounded=0;" vertex="1" parent="WIyWlLk6GJQsqaUBKTNV-1">
          <mxGeometry x="1580" y="585" width="280" height="190" as="geometry" />
        </mxCell>
        <mxCell id="NXojXSi49g-Y3K-OqPZ--33" value="" style="shape=curlyBracket;whiteSpace=wrap;html=1;rounded=1;" vertex="1" parent="WIyWlLk6GJQsqaUBKTNV-1">
          <mxGeometry x="1590" y="630" width="20" height="110" as="geometry" />
        </mxCell>
        <mxCell id="NXojXSi49g-Y3K-OqPZ--37" value="" style="edgeStyle=elbowEdgeStyle;elbow=horizontal;endArrow=classic;html=1;" edge="1" parent="WIyWlLk6GJQsqaUBKTNV-1">
          <mxGeometry width="50" height="50" relative="1" as="geometry">
            <mxPoint x="1360" y="680" as="sourcePoint" />
            <mxPoint x="1400" y="990" as="targetPoint" />
            <Array as="points">
              <mxPoint x="1300" y="810" />
            </Array>
          </mxGeometry>
        </mxCell>
        <mxCell id="NXojXSi49g-Y3K-OqPZ--38" value="" style="endArrow=classic;html=1;" edge="1" parent="WIyWlLk6GJQsqaUBKTNV-1">
          <mxGeometry width="50" height="50" relative="1" as="geometry">
            <mxPoint x="1469.2899999999997" y="890" as="sourcePoint" />
            <mxPoint x="1469.2899999999997" y="970" as="targetPoint" />
          </mxGeometry>
        </mxCell>
        <mxCell id="NXojXSi49g-Y3K-OqPZ--39" value="" style="edgeStyle=elbowEdgeStyle;elbow=horizontal;endArrow=classic;html=1;" edge="1" parent="WIyWlLk6GJQsqaUBKTNV-1">
          <mxGeometry width="50" height="50" relative="1" as="geometry">
            <mxPoint x="2110" y="680" as="sourcePoint" />
            <mxPoint x="2070" y="990" as="targetPoint" />
            <Array as="points">
              <mxPoint x="2170" y="850" />
            </Array>
          </mxGeometry>
        </mxCell>
        <mxCell id="NXojXSi49g-Y3K-OqPZ--40" value="" style="endArrow=classic;html=1;" edge="1" parent="WIyWlLk6GJQsqaUBKTNV-1">
          <mxGeometry width="50" height="50" relative="1" as="geometry">
            <mxPoint x="1999.4099999999999" y="880" as="sourcePoint" />
            <mxPoint x="1999.4099999999999" y="960" as="targetPoint" />
          </mxGeometry>
        </mxCell>
        <mxCell id="NXojXSi49g-Y3K-OqPZ--41" value="&lt;span style=&quot;font-size: 18px&quot;&gt;No&lt;/span&gt;" style="text;html=1;strokeColor=none;fillColor=none;align=center;verticalAlign=middle;whiteSpace=wrap;rounded=0;" vertex="1" parent="WIyWlLk6GJQsqaUBKTNV-1">
          <mxGeometry x="1210" y="840" width="120" height="20" as="geometry" />
        </mxCell>
        <mxCell id="NXojXSi49g-Y3K-OqPZ--42" value="&lt;span style=&quot;font-size: 18px&quot;&gt;No&lt;/span&gt;" style="text;html=1;strokeColor=none;fillColor=none;align=center;verticalAlign=middle;whiteSpace=wrap;rounded=0;" vertex="1" parent="WIyWlLk6GJQsqaUBKTNV-1">
          <mxGeometry x="2150" y="840" width="120" height="20" as="geometry" />
        </mxCell>
        <mxCell id="NXojXSi49g-Y3K-OqPZ--44" value="&lt;font style=&quot;font-size: 18px&quot;&gt;Trello 기록&lt;/font&gt;" style="rounded=0;whiteSpace=wrap;html=1;" vertex="1" parent="WIyWlLk6GJQsqaUBKTNV-1">
          <mxGeometry x="1410" y="830" width="120" height="60" as="geometry" />
        </mxCell>
        <mxCell id="NXojXSi49g-Y3K-OqPZ--46" value="&lt;font style=&quot;font-size: 18px&quot;&gt;물리파일 수급&lt;/font&gt;" style="rounded=0;whiteSpace=wrap;html=1;" vertex="1" parent="WIyWlLk6GJQsqaUBKTNV-1">
          <mxGeometry x="1937" y="960" width="130" height="60" as="geometry" />
        </mxCell>
      </root>
    </mxGraphModel>
  </diagram>
</mxfile>
